<?xml version="1.0" encoding="utf-8"?>
<!-- Generator: Adobe Illustrator 14.0.0, SVG Export Plug-In . SVG Version: 6.00 Build 43363)  -->
<!DOCTYPE svg PUBLIC "-//W3C//DTD SVG 1.1//EN" "http://www.w3.org/Graphics/SVG/1.1/DTD/svg11.dtd">
<svg version="1.1" id="Layer_1" xmlns="http://www.w3.org/2000/svg" xmlns:xlink="http://www.w3.org/1999/xlink" x="0px" y="0px"
	 width="720px" height="720px" viewBox="0 0 720 720" enable-background="new 0 0 720 720" xml:space="preserve">
<g id="page1">
	<g>
		<g>
			<g>
				<path fill="#33CC66" d="M375.677,54.549H252.936V13.653h245.455v40.896H375.677z"/>
			</g>
			<g>
				<path fill="none" stroke="#808080" d="M375.677,54.549H252.936V13.653h245.455v40.896H375.677"/>
			</g>
			<g>
				<g>
					<text transform="matrix(1 0 0 1 322.5396 39.5513)" font-family="'MyriadPro-Regular'" font-size="16.3636">B</text>
					<text transform="matrix(1 0 0 1 333.4404 39.5513)" font-family="'MyriadPro-Regular'" font-size="16.3636">a</text>
					<text transform="matrix(1 0 0 1 342.5107 39.5513)" font-family="'MyriadPro-Regular'" font-size="16.3636">c</text>
					<text transform="matrix(1 0 0 1 350.7832 39.5513)" font-family="'MyriadPro-Regular'" font-size="16.3636">k</text>
					<text transform="matrix(1 0 0 1 358.9775 39.5513)" font-family="'MyriadPro-Regular'" font-size="16.3636">b</text>
					<text transform="matrix(1 0 0 1 368.0225 39.5513)" font-family="'MyriadPro-Regular'" font-size="16.3636">o</text>
					<text transform="matrix(1 0 0 1 377.0938 39.5513)" font-family="'MyriadPro-Regular'" font-size="16.3636">n</text>
					<text transform="matrix(1 0 0 1 386.1387 39.5513)" font-family="'MyriadPro-Regular'" font-size="16.3636">e</text>
					<text transform="matrix(1 0 0 1 395.1836 39.5513)" font-family="'MyriadPro-Regular'" font-size="16.3636"> </text>
					<text transform="matrix(1 0 0 1 399.7705 39.5513)" font-family="'MyriadPro-Regular'" font-size="16.3636">A</text>
					<text transform="matrix(1 0 0 1 410.6973 39.5513)" font-family="'MyriadPro-Regular'" font-size="16.3636">p</text>
					<text transform="matrix(1 0 0 1 419.7422 39.5513)" font-family="'MyriadPro-Regular'" font-size="16.3636">p</text>
				</g>
				<g>
					<rect x="252.962" y="13.679" fill="none" width="245.48" height="40.922"/>
				</g>
			</g>
		</g>
	</g>
	<g>
		<g>
			<g>
				<path fill="#E6E6FF" d="M282.313,92.662c-4.381-8.092,16.157-15.745,36.695-15.745c6.494-0.052,13.194,0.722,18.684,1.907
					c5.282-3.659,15.049-5.901,26.053-5.901c7.293,0.129,15.05,1.211,20.538,3.17c3.943-3.222,12.292-5.128,21.312-5.128
					c7.576,0,14.508,1.391,18.889,3.504c5.051-2.19,12.653-3.504,20.539-3.504c12.858,0,23.733,3.401,26.053,8.194
					c12.421,1.34,21.414,5.669,21.414,10.643c0,1.521-0.644,2.989-2.525,4.381c5.283,2.422,8.479,5.411,8.479,8.479
					c0,6.932-14.173,12.781-32.418,13.786c0,6.648-14.07,11.854-31.646,11.854c-6.056,0-11.751-0.619-16.802-1.855
					c-4.612,5.875-19.224,9.998-35.613,9.998c-12.188,0-23.733-2.474-30.64-6.339c-6.494,1.469-3.093,2.345-21.646,2.345
					c-15.281,0-29.326-3.041-36.696-8.015c-17.575-0.129-26.594-4.071-26.594-9.045c0-2.293,2.319-4.381,6.494-6.133
					c-7.576-1.443-11.751-4.329-11.751-7.628C261.131,96.991,270.356,93.178,282.313,92.662L282.313,92.662z M261.131,70.965
					L261.131,70.965z M498.442,136.444L498.442,136.444z"/>
			</g>
			<g>
				<path fill="none" stroke="#808080" d="M282.313,92.662c-4.381-8.092,16.157-15.745,36.695-15.745
					c6.494-0.052,13.194,0.722,18.684,1.907c5.282-3.659,15.049-5.901,26.053-5.901c7.293,0.129,15.05,1.211,20.538,3.17
					c3.943-3.222,12.292-5.128,21.312-5.128c7.576,0,14.508,1.391,18.889,3.504c5.051-2.19,12.653-3.504,20.539-3.504
					c12.858,0,23.733,3.401,26.053,8.194c12.421,1.34,21.414,5.669,21.414,10.643c0,1.521-0.644,2.989-2.525,4.381
					c5.283,2.422,8.479,5.411,8.479,8.479c0,6.932-14.173,12.781-32.418,13.786c0,6.648-14.07,11.854-31.646,11.854
					c-6.056,0-11.751-0.619-16.802-1.855c-4.612,5.875-19.224,9.998-35.613,9.998c-12.188,0-23.733-2.474-30.64-6.339
					c-6.494,1.469-3.093,2.345-21.646,2.345c-15.281,0-29.326-3.041-36.696-8.015c-17.575-0.129-26.594-4.071-26.594-9.045
					c0-2.293,2.319-4.381,6.494-6.133c-7.576-1.443-11.751-4.329-11.751-7.628C261.131,96.991,270.356,93.178,282.313,92.662"/>
				<path fill="none" stroke="#808080" d="M261.131,70.965L261.131,70.965"/>
				<path fill="none" stroke="#808080" d="M498.442,136.444L498.442,136.444"/>
				<path fill="none" stroke="#808080" d="M282.313,92.662c0.232,0.747,1.211,1.598,1.778,2.294"/>
				<path fill="none" stroke="#808080" d="M261.131,70.965L261.131,70.965"/>
				<path fill="none" stroke="#808080" d="M498.442,136.444L498.442,136.444"/>
				<path fill="none" stroke="#808080" d="M337.692,78.824c2.525,0.593,5.617,1.365,7.705,2.164"/>
				<path fill="none" stroke="#808080" d="M261.131,70.965L261.131,70.965"/>
				<path fill="none" stroke="#808080" d="M498.442,136.444L498.442,136.444"/>
				<path fill="none" stroke="#808080" d="M384.283,76.093c-0.876,0.644-1.443,1.417-1.984,2.139"/>
				<path fill="none" stroke="#808080" d="M261.131,70.965L261.131,70.965"/>
				<path fill="none" stroke="#808080" d="M498.442,136.444L498.442,136.444"/>
				<path fill="none" stroke="#808080" d="M424.483,74.469c-1.648,0.722-2.525,1.701-3.607,2.577"/>
				<path fill="none" stroke="#808080" d="M261.131,70.965L261.131,70.965"/>
				<path fill="none" stroke="#808080" d="M498.442,136.444L498.442,136.444"/>
				<path fill="none" stroke="#808080" d="M471.075,79.159c0.206,0.541,1.314,1.778,0.876,2.035"/>
				<path fill="none" stroke="#808080" d="M261.131,70.965L261.131,70.965"/>
				<path fill="none" stroke="#808080" d="M498.442,136.444L498.442,136.444"/>
				<path fill="none" stroke="#808080" d="M489.964,94.183c-1.855,1.546-4.381,2.912-7.911,4.02"/>
				<path fill="none" stroke="#808080" d="M261.131,70.965L261.131,70.965"/>
				<path fill="none" stroke="#808080" d="M498.442,136.444L498.442,136.444"/>
				<path fill="none" stroke="#808080" d="M466.127,116.447c0.877-2.448-4.174-8.504-18.244-10.797"/>
				<path fill="none" stroke="#808080" d="M261.131,70.965L261.131,70.965"/>
				<path fill="none" stroke="#808080" d="M498.442,136.444L498.442,136.444"/>
				<path fill="none" stroke="#808080" d="M417.577,126.446c0.877-0.979,1.212-1.907,1.418-2.86"/>
				<path fill="none" stroke="#808080" d="M261.131,70.965L261.131,70.965"/>
				<path fill="none" stroke="#808080" d="M498.442,136.444L498.442,136.444"/>
				<path fill="none" stroke="#808080" d="M351.428,130.105c-1.753-0.799-2.861-1.701-3.943-2.654"/>
				<path fill="none" stroke="#808080" d="M261.131,70.965L261.131,70.965"/>
				<path fill="none" stroke="#808080" d="M498.442,136.444L498.442,136.444"/>
				<path fill="none" stroke="#808080" d="M292.982,124.436c2.087-0.129,4.175-0.309,6.159-0.593"/>
				<path fill="none" stroke="#808080" d="M261.131,70.965L261.131,70.965"/>
				<path fill="none" stroke="#808080" d="M498.442,136.444L498.442,136.444"/>
				<path fill="none" stroke="#808080" d="M272.882,109.258c3.608,0.799,7.782,1.494,13.838,1.236"/>
				<path fill="none" stroke="#808080" d="M261.131,70.965L261.131,70.965"/>
				<path fill="none" stroke="#808080" d="M498.442,136.444L498.442,136.444"/>
			</g>
			<g>
				<rect x="261.131" y="70.965" fill="none" width="237.312" height="65.479"/>
			</g>
		</g>
	</g>
	<g>
		<g>
			<g>
				<path fill="#FFFF00" d="M277.495,79.03l12.266-16.286l12.292,16.286h-6.159v49.245h6.159l-12.292,16.312l-12.266-16.312h6.133
					V79.03H277.495z M277.495,62.744L277.495,62.744z M302.053,144.588L302.053,144.588z"/>
			</g>
			<g>
				<path fill="none" stroke="#808080" d="M277.495,79.03l12.266-16.286l12.292,16.286h-6.159v49.245h6.159l-12.292,16.312
					l-12.266-16.312h6.133V79.03H277.495"/>
				<path fill="none" stroke="#808080" d="M277.495,62.744L277.495,62.744"/>
				<path fill="none" stroke="#808080" d="M302.053,144.588L302.053,144.588"/>
			</g>
			<g>
				<g>
					<text transform="matrix(1 0 0 1 268.3721 109.1035)" font-family="'MyriadPro-Regular'" font-size="16.3636">H</text>
					<text transform="matrix(1 0 0 1 280.1489 109.1035)" font-family="'MyriadPro-Regular'" font-size="16.3636">T</text>
					<text transform="matrix(1 0 0 1 290.1992 109.1035)" font-family="'MyriadPro-Regular'" font-size="16.3636">T</text>
					<text transform="matrix(1 0 0 1 300.2231 109.1035)" font-family="'MyriadPro-Regular'" font-size="16.3636">P</text>
				</g>
				<g>
					<rect x="277.495" y="62.77" fill="none" width="24.558" height="81.844"/>
				</g>
			</g>
		</g>
	</g>
	<g>
		<g>
			<g>
				<path fill="#FFFF00" d="M381.835,144.588V83.205h-6.133l12.267-20.461l12.292,20.461h-6.159v61.383H381.835z M375.702,62.744
					L375.702,62.744z M400.261,144.588L400.261,144.588z"/>
			</g>
			<g>
				<path fill="none" stroke="#808080" d="M381.835,144.588V83.205h-6.133l12.267-20.461l12.292,20.461h-6.159v61.383H381.835"/>
				<path fill="none" stroke="#808080" d="M375.702,62.744L375.702,62.744"/>
				<path fill="none" stroke="#808080" d="M400.261,144.588L400.261,144.588"/>
			</g>
			<g>
				<g>
					<text transform="matrix(1 0 0 1 343.7734 114.2314)" font-family="'MyriadPro-Regular'" font-size="16.3636">W</text>
					<text transform="matrix(1 0 0 1 358.8232 114.2314)" font-family="'MyriadPro-Regular'" font-size="16.3636">e</text>
					<text transform="matrix(1 0 0 1 367.8936 114.2314)" font-family="'MyriadPro-Regular'" font-size="16.3636">b</text>
					<text transform="matrix(1 0 0 1 376.9395 114.2314)" font-family="'MyriadPro-Regular'" font-size="16.3636">s</text>
					<text transform="matrix(1 0 0 1 385.1074 114.2314)" font-family="'MyriadPro-Regular'" font-size="16.3636">o</text>
					<text transform="matrix(1 0 0 1 394.1777 114.2314)" font-family="'MyriadPro-Regular'" font-size="16.3636">c</text>
					<text transform="matrix(1 0 0 1 402.4766 114.2314)" font-family="'MyriadPro-Regular'" font-size="16.3636">k</text>
					<text transform="matrix(1 0 0 1 410.4395 114.2314)" font-family="'MyriadPro-Regular'" font-size="16.3636">e</text>
					<text transform="matrix(1 0 0 1 419.3809 114.2314)" font-family="'MyriadPro-Regular'" font-size="16.3636">t</text>
					<text transform="matrix(1 0 0 1 423.9688 114.2314)" font-family="'MyriadPro-Regular'" font-size="16.3636">s</text>
				</g>
				<g>
					<rect x="375.702" y="62.77" fill="none" width="24.559" height="81.844"/>
				</g>
			</g>
		</g>
	</g>
	<g>
		<g>
			<g>
				<path fill="#FF9966" d="M297.956,193.652h-44.994v-40.896h89.987v40.896H297.956z"/>
			</g>
			<g>
				<path fill="none" stroke="#808080" d="M297.956,193.652h-44.994v-40.896h89.987v40.896H297.956"/>
			</g>
			<g>
				<g>
					<text transform="matrix(1 0 0 1 273.9644 168.5273)" font-family="'MyriadPro-Regular'" font-size="16.3636">D</text>
					<text transform="matrix(1 0 0 1 285.7407 168.5273)" font-family="'MyriadPro-Regular'" font-size="16.3636">r</text>
					<text transform="matrix(1 0 0 1 291.2041 168.5273)" font-family="'MyriadPro-Regular'" font-size="16.3636">u</text>
					<text transform="matrix(1 0 0 1 300.249 168.5273)" font-family="'MyriadPro-Regular'" font-size="16.3636">p</text>
					<text transform="matrix(1 0 0 1 309.3198 168.5273)" font-family="'MyriadPro-Regular'" font-size="16.3636">a</text>
					<text transform="matrix(1 0 0 1 318.3652 168.5273)" font-family="'MyriadPro-Regular'" font-size="16.3636">l</text>
					<text transform="matrix(1 0 0 1 276.3091 188.8086)" font-family="'MyriadPro-Regular'" font-size="16.3636">R</text>
					<text transform="matrix(1 0 0 1 288.0859 188.8086)" font-family="'MyriadPro-Regular'" font-size="16.3636">E</text>
					<text transform="matrix(1 0 0 1 299.0122 188.8086)" font-family="'MyriadPro-Regular'" font-size="16.3636">S</text>
					<text transform="matrix(1 0 0 1 309.5771 188.8086)" font-family="'MyriadPro-Regular'" font-size="16.3636">T</text>
				</g>
				<g>
					<rect x="252.962" y="152.782" fill="none" width="90.013" height="40.922"/>
				</g>
			</g>
		</g>
	</g>
	<g>
		<g>
			<g>
				<path fill="#FF420E" d="M392.04,193.652h-40.922v-40.896h81.818v40.896H392.04z"/>
			</g>
			<g>
				<path fill="none" stroke="#808080" d="M392.04,193.652h-40.922v-40.896h81.818v40.896H392.04"/>
			</g>
			<g>
				<g>
					<text transform="matrix(1 0 0 1 365.7549 168.5273)" font-family="'MyriadPro-Regular'" font-size="16.3636">D</text>
					<text transform="matrix(1 0 0 1 377.5312 168.5273)" font-family="'MyriadPro-Regular'" font-size="16.3636">r</text>
					<text transform="matrix(1 0 0 1 382.9951 168.5273)" font-family="'MyriadPro-Regular'" font-size="16.3636">u</text>
					<text transform="matrix(1 0 0 1 392.04 168.5273)" font-family="'MyriadPro-Regular'" font-size="16.3636">p</text>
					<text transform="matrix(1 0 0 1 401.1104 168.5273)" font-family="'MyriadPro-Regular'" font-size="16.3636">a</text>
					<text transform="matrix(1 0 0 1 410.1562 168.5273)" font-family="'MyriadPro-Regular'" font-size="16.3636">l</text>
					<text transform="matrix(1 0 0 1 363.0234 188.8086)" font-family="'MyriadPro-Regular'" font-size="16.3636">N</text>
					<text transform="matrix(1 0 0 1 374.7998 188.8086)" font-family="'MyriadPro-Regular'" font-size="16.3636">o</text>
					<text transform="matrix(1 0 0 1 383.8711 188.8086)" font-family="'MyriadPro-Regular'" font-size="16.3636">d</text>
					<text transform="matrix(1 0 0 1 392.916 188.8086)" font-family="'MyriadPro-Regular'" font-size="16.3636">e</text>
					<text transform="matrix(1 0 0 1 401.9609 188.8086)" font-family="'MyriadPro-Regular'" font-size="16.3636">J</text>
					<text transform="matrix(1 0 0 1 410.1562 188.8086)" font-family="'MyriadPro-Regular'" font-size="16.3636">S</text>
				</g>
				<g>
					<rect x="351.144" y="152.782" fill="none" width="81.844" height="40.922"/>
				</g>
			</g>
		</g>
	</g>
	<g>
		<g>
			<g>
				<path fill="#FF0000" d="M469.761,193.652h-28.655v-40.896h57.285v40.896H469.761z"/>
			</g>
			<g>
				<path fill="none" stroke="#808080" d="M469.761,193.652h-28.655v-40.896h57.285v40.896H469.761"/>
			</g>
			<g>
				<g>
					<text transform="matrix(1 0 0 1 451.1553 168.5273)" font-family="'MyriadPro-Regular'" font-size="16.3636">C</text>
					<text transform="matrix(1 0 0 1 462.9316 168.5273)" font-family="'MyriadPro-Regular'" font-size="16.3636">R</text>
					<text transform="matrix(1 0 0 1 474.709 168.5273)" font-family="'MyriadPro-Regular'" font-size="16.3636">M</text>
					<text transform="matrix(1 0 0 1 456.5664 188.8086)" font-family="'MyriadPro-Regular'" font-size="16.3636">A</text>
					<text transform="matrix(1 0 0 1 467.4668 188.8086)" font-family="'MyriadPro-Regular'" font-size="16.3636">P</text>
					<text transform="matrix(1 0 0 1 478.3926 188.8086)" font-family="'MyriadPro-Regular'" font-size="16.3636">I</text>
				</g>
				<g>
					<rect x="441.131" y="152.782" fill="none" width="57.312" height="40.922"/>
				</g>
			</g>
		</g>
	</g>
	<g>
		<g>
			<g>
				<path fill="#FFFF00" d="M464.4,79.056l12.267-16.286l12.292,16.286H482.8v49.246h6.159l-12.292,16.312L464.4,128.302h6.134
					V79.056H464.4z M464.4,62.77L464.4,62.77z M488.959,144.613L488.959,144.613z"/>
			</g>
			<g>
				<path fill="none" stroke="#808080" d="M464.4,79.056l12.267-16.286l12.292,16.286H482.8v49.246h6.159l-12.292,16.312
					L464.4,128.302h6.134V79.056H464.4"/>
				<path fill="none" stroke="#808080" d="M464.4,62.77L464.4,62.77"/>
				<path fill="none" stroke="#808080" d="M488.959,144.613L488.959,144.613"/>
			</g>
			<g>
				<g>
					<text transform="matrix(1 0 0 1 455.2773 109.1284)" font-family="'MyriadPro-Regular'" font-size="16.3636">H</text>
					<text transform="matrix(1 0 0 1 467.0547 109.1284)" font-family="'MyriadPro-Regular'" font-size="16.3636">T</text>
					<text transform="matrix(1 0 0 1 477.1055 109.1284)" font-family="'MyriadPro-Regular'" font-size="16.3636">T</text>
					<text transform="matrix(1 0 0 1 487.1289 109.1284)" font-family="'MyriadPro-Regular'" font-size="16.3636">P</text>
				</g>
				<g>
					<rect x="464.4" y="62.795" fill="none" width="24.559" height="81.845"/>
				</g>
			</g>
		</g>
	</g>
</g>
</svg>
