<?xml version="1.0" encoding="UTF-8" standalone="no"?>
<!DOCTYPE svg PUBLIC "-//W3C//DTD SVG 1.1//EN"
 "http://www.w3.org/Graphics/SVG/1.1/DTD/svg11.dtd">
<!-- Generated by graphviz version 2.28.0 (20120524.1247)
 -->
<!-- Title: G Pages: 1 -->
<svg width="468pt" height="212pt"
 viewBox="0.00 0.00 467.85 212.00" xmlns="http://www.w3.org/2000/svg" xmlns:xlink="http://www.w3.org/1999/xlink">
<g id="graph1" class="graph" transform="scale(1 1) rotate(0) translate(4 208)">
<title>G</title>
<polygon fill="white" stroke="white" points="-4,5 -4,-208 464.849,-208 464.849,5 -4,5"/>
<!-- N -->
<g id="node1" class="node"><title>N</title>
<polygon fill="#ebebeb" stroke="#ebebeb" points="155.099,-204 80.5994,-204 68.5994,-192 68.5994,-180 80.5994,-168 155.099,-168 167.099,-180 167.099,-192 155.099,-204"/>
<path fill="#ebebeb" stroke="#ebebeb" d="M80.5994,-204C74.5994,-204 68.5994,-198 68.5994,-192"/>
<path fill="#ebebeb" stroke="#ebebeb" d="M68.5994,-180C68.5994,-174 74.5994,-168 80.5994,-168"/>
<path fill="#ebebeb" stroke="#ebebeb" d="M155.099,-168C161.099,-168 167.099,-174 167.099,-180"/>
<path fill="#ebebeb" stroke="#ebebeb" d="M167.099,-192C167.099,-198 161.099,-204 155.099,-204"/>
<polyline fill="none" stroke="black" points="155.099,-204 80.5994,-204 "/>
<path fill="none" stroke="black" d="M80.5994,-204C74.5994,-204 68.5994,-198 68.5994,-192"/>
<polyline fill="none" stroke="black" points="68.5994,-192 68.5994,-180 "/>
<path fill="none" stroke="black" d="M68.5994,-180C68.5994,-174 74.5994,-168 80.5994,-168"/>
<polyline fill="none" stroke="black" points="80.5994,-168 155.099,-168 "/>
<path fill="none" stroke="black" d="M155.099,-168C161.099,-168 167.099,-174 167.099,-180"/>
<polyline fill="none" stroke="black" points="167.099,-180 167.099,-192 "/>
<path fill="none" stroke="black" d="M167.099,-192C167.099,-198 161.099,-204 155.099,-204"/>
<text text-anchor="middle" x="117.849" y="-182.3" font-family="Inconsolata-g" font-size="14.00">Node Model</text>
</g>
<!-- B -->
<g id="node2" class="node"><title>B</title>
<polygon fill="#ebebeb" stroke="#ebebeb" points="167.349,-120 68.3494,-120 56.3494,-108 56.3494,-96 68.3494,-84 167.349,-84 179.349,-96 179.349,-108 167.349,-120"/>
<path fill="#ebebeb" stroke="#ebebeb" d="M68.3494,-120C62.3494,-120 56.3494,-114 56.3494,-108"/>
<path fill="#ebebeb" stroke="#ebebeb" d="M56.3494,-96C56.3494,-90 62.3494,-84 68.3494,-84"/>
<path fill="#ebebeb" stroke="#ebebeb" d="M167.349,-84C173.349,-84 179.349,-90 179.349,-96"/>
<path fill="#ebebeb" stroke="#ebebeb" d="M179.349,-108C179.349,-114 173.349,-120 167.349,-120"/>
<polyline fill="none" stroke="black" points="167.349,-120 68.3494,-120 "/>
<path fill="none" stroke="black" d="M68.3494,-120C62.3494,-120 56.3494,-114 56.3494,-108"/>
<polyline fill="none" stroke="black" points="56.3494,-108 56.3494,-96 "/>
<path fill="none" stroke="black" d="M56.3494,-96C56.3494,-90 62.3494,-84 68.3494,-84"/>
<polyline fill="none" stroke="black" points="68.3494,-84 167.349,-84 "/>
<path fill="none" stroke="black" d="M167.349,-84C173.349,-84 179.349,-90 179.349,-96"/>
<polyline fill="none" stroke="black" points="179.349,-96 179.349,-108 "/>
<path fill="none" stroke="black" d="M179.349,-108C179.349,-114 173.349,-120 167.349,-120"/>
<text text-anchor="middle" x="117.849" y="-98.3" font-family="Inconsolata-g" font-size="14.00">Backbone.sync</text>
</g>
<!-- N&#45;&gt;B -->
<g id="edge2" class="edge"><title>N&#45;&gt;B</title>
<path fill="none" stroke="black" d="M68.4406,-182.658C45.2156,-178.768 19.4726,-169.838 4.84941,-150 -10.7357,-128.857 15.0813,-117.174 45.949,-110.745"/>
<polygon fill="black" stroke="black" points="46.9209,-114.124 56.1023,-108.837 45.6279,-107.244 46.9209,-114.124"/>
<text text-anchor="middle" x="107.349" y="-141.5" font-family="Inconsolata-g" font-size="10.00">Passes Request with NID as REST ID</text>
</g>
<!-- B&#45;&gt;N -->
<g id="edge8" class="edge"><title>B&#45;&gt;N</title>
<path fill="none" stroke="orange" d="M179.402,-113.968C203.097,-121.133 221.914,-132.502 209.849,-150 201.966,-161.434 189.815,-169.136 176.901,-174.323"/>
<polygon fill="orange" stroke="orange" points="175.678,-171.043 167.413,-177.673 178.008,-177.644 175.678,-171.043"/>
<text text-anchor="middle" x="336.349" y="-141.5" font-family="Inconsolata-g" font-size="10.00" fill="orange">Calls parse() method of model with values</text>
</g>
<!-- S -->
<g id="node3" class="node"><title>S</title>
<polygon fill="#ebebeb" stroke="#ebebeb" points="192.099,-36 43.5994,-36 31.5994,-24 31.5994,-12 43.5994,-0 192.099,-0 204.099,-12 204.099,-24 192.099,-36"/>
<path fill="#ebebeb" stroke="#ebebeb" d="M43.5994,-36C37.5994,-36 31.5994,-30 31.5994,-24"/>
<path fill="#ebebeb" stroke="#ebebeb" d="M31.5994,-12C31.5994,-6 37.5994,-0 43.5994,-0"/>
<path fill="#ebebeb" stroke="#ebebeb" d="M192.099,-0C198.099,-0 204.099,-6 204.099,-12"/>
<path fill="#ebebeb" stroke="#ebebeb" d="M204.099,-24C204.099,-30 198.099,-36 192.099,-36"/>
<polyline fill="none" stroke="black" points="192.099,-36 43.5994,-36 "/>
<path fill="none" stroke="black" d="M43.5994,-36C37.5994,-36 31.5994,-30 31.5994,-24"/>
<polyline fill="none" stroke="black" points="31.5994,-24 31.5994,-12 "/>
<path fill="none" stroke="black" d="M31.5994,-12C31.5994,-6 37.5994,-0 43.5994,-0"/>
<polyline fill="none" stroke="black" points="43.5994,-0 192.099,-0 "/>
<path fill="none" stroke="black" d="M192.099,-0C198.099,-0 204.099,-6 204.099,-12"/>
<polyline fill="none" stroke="black" points="204.099,-12 204.099,-24 "/>
<path fill="none" stroke="black" d="M204.099,-24C204.099,-30 198.099,-36 192.099,-36"/>
<text text-anchor="middle" x="117.849" y="-14.3" font-family="Inconsolata-g" font-size="14.00">Drupal REST Service</text>
</g>
<!-- B&#45;&gt;S -->
<g id="edge4" class="edge"><title>B&#45;&gt;S</title>
<path fill="none" stroke="blue" d="M76.2047,-83.8924C69.2559,-79.1439 62.9751,-73.2444 58.8494,-66 53.5899,-56.7645 57.5945,-48.6612 65.5181,-41.9003"/>
<polygon fill="blue" stroke="blue" points="67.6057,-44.7108 73.7433,-36.0748 63.5598,-38.9984 67.6057,-44.7108"/>
<text text-anchor="middle" x="107.349" y="-57.5" font-family="Inconsolata-g" font-size="10.00" fill="blue">Sends Request To</text>
</g>
<!-- S&#45;&gt;B -->
<g id="edge6" class="edge"><title>S&#45;&gt;B</title>
<path fill="none" stroke="orange" d="M144.388,-36.2281C153.643,-44.5263 160.653,-55.0448 155.849,-66 154.234,-69.6836 152.019,-73.1506 149.463,-76.3639"/>
<polygon fill="orange" stroke="orange" points="146.793,-74.0962 142.557,-83.8076 151.925,-78.8571 146.793,-74.0962"/>
<text text-anchor="middle" x="247.349" y="-57.5" font-family="Inconsolata-g" font-size="10.00" fill="orange">Responds with Node JSON Object</text>
</g>
</g>
</svg>
