<?xml version="1.0" encoding="UTF-8" standalone="no"?>
<!DOCTYPE svg PUBLIC "-//W3C//DTD SVG 1.1//EN"
 "http://www.w3.org/Graphics/SVG/1.1/DTD/svg11.dtd">
<!-- Generated by graphviz version 2.28.0 (20120524.1247)
 -->
<!-- Title: G Pages: 1 -->
<svg width="461pt" height="212pt"
 viewBox="0.00 0.00 461.18 212.00" xmlns="http://www.w3.org/2000/svg" xmlns:xlink="http://www.w3.org/1999/xlink">
<g id="graph1" class="graph" transform="scale(1 1) rotate(0) translate(4 208)">
<title>G</title>
<polygon fill="white" stroke="white" points="-4,5 -4,-208 458.182,-208 458.182,5 -4,5"/>
<!-- N -->
<g id="node1" class="node"><title>N</title>
<polygon fill="#ebebeb" stroke="#ebebeb" points="139.432,-204 64.9316,-204 52.9316,-192 52.9316,-180 64.9316,-168 139.432,-168 151.432,-180 151.432,-192 139.432,-204"/>
<path fill="#ebebeb" stroke="#ebebeb" d="M64.9316,-204C58.9316,-204 52.9316,-198 52.9316,-192"/>
<path fill="#ebebeb" stroke="#ebebeb" d="M52.9316,-180C52.9316,-174 58.9316,-168 64.9316,-168"/>
<path fill="#ebebeb" stroke="#ebebeb" d="M139.432,-168C145.432,-168 151.432,-174 151.432,-180"/>
<path fill="#ebebeb" stroke="#ebebeb" d="M151.432,-192C151.432,-198 145.432,-204 139.432,-204"/>
<polyline fill="none" stroke="black" points="139.432,-204 64.9316,-204 "/>
<path fill="none" stroke="black" d="M64.9316,-204C58.9316,-204 52.9316,-198 52.9316,-192"/>
<polyline fill="none" stroke="black" points="52.9316,-192 52.9316,-180 "/>
<path fill="none" stroke="black" d="M52.9316,-180C52.9316,-174 58.9316,-168 64.9316,-168"/>
<polyline fill="none" stroke="black" points="64.9316,-168 139.432,-168 "/>
<path fill="none" stroke="black" d="M139.432,-168C145.432,-168 151.432,-174 151.432,-180"/>
<polyline fill="none" stroke="black" points="151.432,-180 151.432,-192 "/>
<path fill="none" stroke="black" d="M151.432,-192C151.432,-198 145.432,-204 139.432,-204"/>
<text text-anchor="middle" x="102.182" y="-182.3" font-family="Inconsolata-g" font-size="14.00">Node Model</text>
</g>
<!-- B -->
<g id="node2" class="node"><title>B</title>
<polygon fill="#ebebeb" stroke="#ebebeb" points="151.682,-120 52.6816,-120 40.6816,-108 40.6816,-96 52.6816,-84 151.682,-84 163.682,-96 163.682,-108 151.682,-120"/>
<path fill="#ebebeb" stroke="#ebebeb" d="M52.6816,-120C46.6816,-120 40.6816,-114 40.6816,-108"/>
<path fill="#ebebeb" stroke="#ebebeb" d="M40.6816,-96C40.6816,-90 46.6816,-84 52.6816,-84"/>
<path fill="#ebebeb" stroke="#ebebeb" d="M151.682,-84C157.682,-84 163.682,-90 163.682,-96"/>
<path fill="#ebebeb" stroke="#ebebeb" d="M163.682,-108C163.682,-114 157.682,-120 151.682,-120"/>
<polyline fill="none" stroke="black" points="151.682,-120 52.6816,-120 "/>
<path fill="none" stroke="black" d="M52.6816,-120C46.6816,-120 40.6816,-114 40.6816,-108"/>
<polyline fill="none" stroke="black" points="40.6816,-108 40.6816,-96 "/>
<path fill="none" stroke="black" d="M40.6816,-96C40.6816,-90 46.6816,-84 52.6816,-84"/>
<polyline fill="none" stroke="black" points="52.6816,-84 151.682,-84 "/>
<path fill="none" stroke="black" d="M151.682,-84C157.682,-84 163.682,-90 163.682,-96"/>
<polyline fill="none" stroke="black" points="163.682,-96 163.682,-108 "/>
<path fill="none" stroke="black" d="M163.682,-108C163.682,-114 157.682,-120 151.682,-120"/>
<text text-anchor="middle" x="102.182" y="-98.3" font-family="Inconsolata-g" font-size="14.00">Backbone.sync</text>
</g>
<!-- N&#45;&gt;B -->
<g id="edge2" class="edge"><title>N&#45;&gt;B</title>
<path fill="none" stroke="blue" d="M52.8044,-179.358C34.4418,-174.59 15.3693,-165.875 4.18159,-150 -7.65956,-133.197 8.32301,-122.184 30.5935,-115.076"/>
<polygon fill="blue" stroke="blue" points="31.8029,-118.371 40.4601,-112.263 29.8837,-111.639 31.8029,-118.371"/>
<text text-anchor="middle" x="91.6816" y="-141.5" font-family="Inconsolata-g" font-size="10.00" fill="blue">Delegates Request Handling To</text>
</g>
<!-- B&#45;&gt;N -->
<g id="edge8" class="edge"><title>B&#45;&gt;N</title>
<path fill="none" stroke="orange" d="M163.913,-120.089C178.343,-127.386 187.406,-137.227 179.182,-150 174.496,-157.277 167.887,-163.058 160.488,-167.646"/>
<polygon fill="orange" stroke="orange" points="158.638,-164.668 151.507,-172.503 161.968,-170.825 158.638,-164.668"/>
<text text-anchor="middle" x="317.682" y="-141.5" font-family="Inconsolata-g" font-size="10.00" fill="orange">Calls parse() method of model with new values</text>
</g>
<!-- S -->
<g id="node3" class="node"><title>S</title>
<polygon fill="#ebebeb" stroke="#ebebeb" points="176.432,-36 27.9316,-36 15.9316,-24 15.9316,-12 27.9316,-0 176.432,-0 188.432,-12 188.432,-24 176.432,-36"/>
<path fill="#ebebeb" stroke="#ebebeb" d="M27.9316,-36C21.9316,-36 15.9316,-30 15.9316,-24"/>
<path fill="#ebebeb" stroke="#ebebeb" d="M15.9316,-12C15.9316,-6 21.9316,-0 27.9316,-0"/>
<path fill="#ebebeb" stroke="#ebebeb" d="M176.432,-0C182.432,-0 188.432,-6 188.432,-12"/>
<path fill="#ebebeb" stroke="#ebebeb" d="M188.432,-24C188.432,-30 182.432,-36 176.432,-36"/>
<polyline fill="none" stroke="black" points="176.432,-36 27.9316,-36 "/>
<path fill="none" stroke="black" d="M27.9316,-36C21.9316,-36 15.9316,-30 15.9316,-24"/>
<polyline fill="none" stroke="black" points="15.9316,-24 15.9316,-12 "/>
<path fill="none" stroke="black" d="M15.9316,-12C15.9316,-6 21.9316,-0 27.9316,-0"/>
<polyline fill="none" stroke="black" points="27.9316,-0 176.432,-0 "/>
<path fill="none" stroke="black" d="M176.432,-0C182.432,-0 188.432,-6 188.432,-12"/>
<polyline fill="none" stroke="black" points="188.432,-12 188.432,-24 "/>
<path fill="none" stroke="black" d="M188.432,-24C188.432,-30 182.432,-36 176.432,-36"/>
<text text-anchor="middle" x="102.182" y="-14.3" font-family="Inconsolata-g" font-size="14.00">Drupal REST Service</text>
</g>
<!-- B&#45;&gt;S -->
<g id="edge4" class="edge"><title>B&#45;&gt;S</title>
<path fill="none" stroke="blue" d="M60.5369,-83.8924C53.588,-79.1439 47.3073,-73.2444 43.1816,-66 37.922,-56.7645 41.9267,-48.6612 49.8503,-41.9003"/>
<polygon fill="blue" stroke="blue" points="51.9379,-44.7108 58.0755,-36.0748 47.892,-38.9984 51.9379,-44.7108"/>
<text text-anchor="middle" x="91.6816" y="-57.5" font-family="Inconsolata-g" font-size="10.00" fill="blue">Sends Request To</text>
</g>
<!-- S&#45;&gt;B -->
<g id="edge6" class="edge"><title>S&#45;&gt;B</title>
<path fill="none" stroke="orange" d="M128.72,-36.2281C137.975,-44.5263 144.985,-55.0448 140.182,-66 138.566,-69.6836 136.351,-73.1506 133.795,-76.3639"/>
<polygon fill="orange" stroke="orange" points="131.125,-74.0962 126.89,-83.8076 136.257,-78.8571 131.125,-74.0962"/>
<text text-anchor="middle" x="225.682" y="-57.5" font-family="Inconsolata-g" font-size="10.00" fill="orange">Responds with updated values</text>
</g>
</g>
</svg>
